<?xml version="1.0" encoding="utf-8" ?>
<svg baseProfile="full" height="800" version="1.1" width="900" xmlns="http://www.w3.org/2000/svg" xmlns:ev="http://www.w3.org/2001/xml-events" xmlns:xlink="http://www.w3.org/1999/xlink"><defs /><rect fill="white" height="100%" width="100%" x="0" y="0" /><text font-family="sans-serif" font-size="24" font-weight="bold" text-anchor="middle" x="450.0" y="40">29只港股IPO绿鞋资金累计消耗比例 TOP10</text><text font-family="sans-serif" font-size="16" text-anchor="end" x="140" y="105.0">古茗</text><rect fill="#e74c3c" height="40" rx="5" ry="5" width="700.0" x="150" y="80" /><text font-family="sans-serif" font-size="14" font-weight="bold" x="860.0" y="105.0">100%</text><text font-family="sans-serif" font-size="16" text-anchor="end" x="140" y="165.0">赤峰黄金</text><rect fill="#e74c3c" height="40" rx="5" ry="5" width="700.0" x="150" y="140" /><text font-family="sans-serif" font-size="14" font-weight="bold" x="860.0" y="165.0">100%</text><text font-family="sans-serif" font-size="16" text-anchor="end" x="140" y="225.0">绿茶集团</text><rect fill="#e74c3c" height="40" rx="5" ry="5" width="700.0" x="150" y="200" /><text font-family="sans-serif" font-size="14" font-weight="bold" x="860.0" y="225.0">100%</text><text font-family="sans-serif" font-size="16" text-anchor="end" x="140" y="285.0">手回集团</text><rect fill="#e74c3c" height="40" rx="5" ry="5" width="700.0" x="150" y="260" /><text font-family="sans-serif" font-size="14" font-weight="bold" x="860.0" y="285.0">100%</text><text font-family="sans-serif" font-size="16" text-anchor="end" x="140" y="345.0">颖通控股</text><rect fill="#e74c3c" height="40" rx="5" ry="5" width="700.0" x="150" y="320" /><text font-family="sans-serif" font-size="14" font-weight="bold" x="860.0" y="345.0">100%</text><text font-family="sans-serif" font-size="16" text-anchor="end" x="140" y="405.0">遇见小面</text><rect fill="#e74c3c" height="40" rx="5" ry="5" width="700.0" x="150" y="380" /><text font-family="sans-serif" font-size="14" font-weight="bold" x="860.0" y="405.0">100%</text><text font-family="sans-serif" font-size="16" text-anchor="end" x="140" y="465.0">迅策</text><rect fill="#e74c3c" height="40" rx="5" ry="5" width="630.0" x="150" y="440" /><text font-family="sans-serif" font-size="14" font-weight="bold" x="790.0" y="465.0">90%</text><text font-family="sans-serif" font-size="16" text-anchor="end" x="140" y="525.0">龙旗科技</text><rect fill="#f39c12" height="40" rx="5" ry="5" width="539.0" x="150" y="500" /><text font-family="sans-serif" font-size="14" font-weight="bold" x="699.0" y="525.0">77%</text><text font-family="sans-serif" font-size="16" text-anchor="end" x="140" y="585.0">小马智行</text><rect fill="#f39c12" height="40" rx="5" ry="5" width="525.0" x="150" y="560" /><text font-family="sans-serif" font-size="14" font-weight="bold" x="685.0" y="585.0">75%</text><text font-family="sans-serif" font-size="16" text-anchor="end" x="140" y="645.0">希迪智驾</text><rect fill="#f39c12" height="40" rx="5" ry="5" width="489.99999999999994" x="150" y="620" /><text font-family="sans-serif" font-size="14" font-weight="bold" x="650.0" y="645.0">70%</text></svg>