<svg width="800" height="600" xmlns="http://www.w3.org/2000/svg"><rect width="100%" height="100%" fill="white"/><text x="400.0" y="40" text-anchor="middle" font-size="24" font-weight="bold" font-family="sans-serif">绿鞋用量与股价表现矩阵分析</text><line x1="60" y1="320.0" x2="740" y2="320.0" stroke="gray" stroke-width="2" stroke-dasharray="5,5"/><line x1="400.0" y1="100" x2="400.0" y2="540" stroke="gray" stroke-width="2" stroke-dasharray="5,5"/><text x="740" y="310.0" text-anchor="end" font-weight="bold" fill="gray">表现优异</text><text x="740" y="340.0" text-anchor="end" font-weight="bold" fill="gray">表现不佳</text><text x="60" y="110" text-anchor="start" font-weight="bold" fill="gray">绿鞋用量少</text><text x="740" y="110" text-anchor="end" font-weight="bold" fill="gray">绿鞋用量多</text><circle cx="264.0" cy="144.0" r="6" fill="#2ecc71" stroke="black" stroke-width="1"/><text x="272.0" y="148.0" font-size="12" font-family="sans-serif">曹操出行</text><circle cx="223.2" cy="188.0" r="6" fill="#2ecc71" stroke="black" stroke-width="1"/><text x="231.2" y="192.0" font-size="12" font-family="sans-serif">卧安机器人</text><circle cx="80.4" cy="232.0" r="6" fill="#2ecc71" stroke="black" stroke-width="1"/><text x="88.4" y="236.0" font-size="12" font-family="sans-serif">天岳先进</text><circle cx="141.6" cy="298.0" r="6" fill="#f1c40f" stroke="black" stroke-width="1"/><text x="149.6" y="302.0" font-size="12" font-family="sans-serif">三一重工</text><circle cx="284.4" cy="320.0" r="6" fill="#f1c40f" stroke="black" stroke-width="1"/><text x="292.4" y="324.0" font-size="12" font-family="sans-serif">京东工业</text><circle cx="345.59999999999997" cy="320.0" r="6" fill="#f1c40f" stroke="black" stroke-width="1"/><text x="353.59999999999997" y="324.0" font-size="12" font-family="sans-serif">龙旗科技</text><circle cx="610.8000000000001" cy="364.0" r="6" fill="#e74c3c" stroke="black" stroke-width="1"/><text x="618.8000000000001" y="368.0" font-size="12" font-family="sans-serif">古茗</text><circle cx="740.0" cy="452.0" r="6" fill="#e74c3c" stroke="black" stroke-width="1"/><text x="748.0" y="456.0" font-size="12" font-family="sans-serif">手回集团</text><circle cx="740.0" cy="430.0" r="6" fill="#e74c3c" stroke="black" stroke-width="1"/><text x="748.0" y="434.0" font-size="12" font-family="sans-serif">绿茶集团</text><circle cx="100.8" cy="496.0" r="6" fill="#95a5a6" stroke="black" stroke-width="1"/><text x="108.8" y="500.0" font-size="12" font-family="sans-serif">禾赛</text><circle cx="60.0" cy="518.0" r="6" fill="#95a5a6" stroke="black" stroke-width="1"/><text x="68.0" y="522.0" font-size="12" font-family="sans-serif">希迪智驾</text><circle cx="107.6" cy="276.0" r="6" fill="#f1c40f" stroke="black" stroke-width="1"/><text x="115.6" y="280.0" font-size="12" font-family="sans-serif">智谱</text></svg>