<svg width="800" height="500" xmlns="http://www.w3.org/2000/svg"><rect width="100%" height="100%" fill="white"/><text x="400.0" y="40" text-anchor="middle" font-size="24" font-weight="bold" font-family="sans-serif">IPO首日/初期绿鞋资金消耗比例 TOP10</text><line x1="150" y1="80" x2="150" y2="450" stroke="black" stroke-width="2"/><line x1="150" y1="450" x2="750" y2="450" stroke="black" stroke-width="2"/><rect x="150" y="85.0" width="600.0" height="27.0" fill="#e74c3c"/><text x="140" y="103.5" text-anchor="end" font-size="14" font-family="sans-serif">绿茶集团</text><text x="760.0" y="103.5" text-anchor="start" font-size="14" font-family="sans-serif">100%</text><rect x="150" y="122.0" width="600.0" height="27.0" fill="#e74c3c"/><text x="140" y="140.5" text-anchor="end" font-size="14" font-family="sans-serif">手回集团</text><text x="760.0" y="140.5" text-anchor="start" font-size="14" font-family="sans-serif">100%</text><rect x="150" y="159.0" width="600.0" height="27.0" fill="#e74c3c"/><text x="140" y="177.5" text-anchor="end" font-size="14" font-family="sans-serif">遇见小面</text><text x="760.0" y="177.5" text-anchor="start" font-size="14" font-family="sans-serif">100%</text><rect x="150" y="196.0" width="600.0" height="27.0" fill="#e74c3c"/><text x="140" y="214.5" text-anchor="end" font-size="14" font-family="sans-serif">颖通控股</text><text x="760.0" y="214.5" text-anchor="start" font-size="14" font-family="sans-serif">100%</text><rect x="150" y="233.0" width="540.0" height="27.0" fill="#e74c3c"/><text x="140" y="251.5" text-anchor="end" font-size="14" font-family="sans-serif">迅策</text><text x="700.0" y="251.5" text-anchor="start" font-size="14" font-family="sans-serif">90%</text><rect x="150" y="270.0" width="486.00000000000006" height="27.0" fill="#e74c3c"/><text x="140" y="288.5" text-anchor="end" font-size="14" font-family="sans-serif">古茗</text><text x="646.0" y="288.5" text-anchor="start" font-size="14" font-family="sans-serif">81%</text><rect x="150" y="307.0" width="341.99999999999994" height="27.0" fill="#f39c12"/><text x="140" y="325.5" text-anchor="end" font-size="14" font-family="sans-serif">安井食品</text><text x="501.99999999999994" y="325.5" text-anchor="start" font-size="14" font-family="sans-serif">57%</text><rect x="150" y="344.0" width="270.0" height="27.0" fill="#f39c12"/><text x="140" y="362.5" text-anchor="end" font-size="14" font-family="sans-serif">广和通</text><text x="430.0" y="362.5" text-anchor="start" font-size="14" font-family="sans-serif">45%</text><rect x="150" y="381.0" width="252.0" height="27.0" fill="#f39c12"/><text x="140" y="399.5" text-anchor="end" font-size="14" font-family="sans-serif">龙旗科技</text><text x="412.0" y="399.5" text-anchor="start" font-size="14" font-family="sans-serif">42%</text><rect x="150" y="418.0" width="240.0" height="27.0" fill="#f39c12"/><text x="140" y="436.5" text-anchor="end" font-size="14" font-family="sans-serif">赛力斯</text><text x="400.0" y="436.5" text-anchor="start" font-size="14" font-family="sans-serif">40%</text><text x="475.0" y="490" text-anchor="middle" font-size="16" font-family="sans-serif">消耗比例 (%)</text></svg>